<svg width="121" height="349" viewBox="0 0 121 349" fill="none" xmlns="http://www.w3.org/2000/svg">
<path fill-rule="evenodd" clip-rule="evenodd" d="M119.832 248.304C106.368 280.74 84.336 308.892 73.932 343.164C72.096 348.672 62.916 351.12 60.468 345C45.78 310.728 23.748 279.516 13.344 243.408C11.508 236.676 20.688 229.944 25.584 236.064C32.928 245.244 41.496 252.588 50.063 261.156C48.839 208.524 50.063 155.892 40.883 103.872C35.987 75.72 29.255 43.895 9.05901 22.476C-2.39999 9.88688 -0.133331 4.50031 6 1.05702C19.1 -4.61313 42.72 46.957 49.452 71.437C65.975 132.637 65.975 198.733 64.14 261.769C78.828 251.977 95.352 242.797 111.876 236.677C118.608 234.84 122.281 243.408 119.832 248.304ZM40.272 270.336C48.228 287.472 58.02 304.608 66.588 321.744C75.768 300.324 87.396 281.352 98.412 260.544C85.559 268.5 73.32 277.68 59.244 279.516C56.183 280.128 53.735 278.292 52.512 275.844C48.228 275.232 43.945 273.396 40.272 270.336Z" fill="#D70277"/>
</svg>
