<svg width="32" height="32" viewBox="0 0 32 32" fill="none" xmlns="http://www.w3.org/2000/svg">
<rect width="32" height="32" rx="5" fill="#00001E"/>
<path d="M12.216 13.312C12.296 13.232 12.392 13.196 12.504 13.204C12.616 13.204 12.712 13.244 12.792 13.324C12.912 13.444 12.944 13.58 12.888 13.732C13.704 13.252 14.352 12.996 14.832 12.964C15.312 12.924 15.656 13.064 15.864 13.384C16.04 13.648 16.064 13.98 15.936 14.38C15.912 14.492 15.868 14.608 15.804 14.728C15.748 14.84 15.68 14.952 15.6 15.064C16.176 14.944 16.716 14.804 17.22 14.644C17.724 14.476 18.14 14.32 18.468 14.176C18.804 14.032 19.304 13.8 19.968 13.48L20.496 13.24C20.6 13.184 20.708 13.176 20.82 13.216C20.932 13.256 21.012 13.324 21.06 13.42C21.108 13.524 21.112 13.632 21.072 13.744C21.032 13.856 20.96 13.936 20.856 13.984L20.328 14.236C19.56 14.596 18.984 14.856 18.6 15.016C18.224 15.176 17.732 15.348 17.124 15.532C16.516 15.716 15.828 15.872 15.06 16L14.352 16.132C14.312 16.148 14.268 16.164 14.22 16.18C14.18 16.196 14.132 16.212 14.076 16.228C14.02 16.244 13.98 16.256 13.956 16.264L13.62 16.372C13.34 16.436 13.072 16.48 12.816 16.504H12.804C12.548 16.52 12.38 16.476 12.3 16.372C12.22 16.268 12.232 16.108 12.336 15.892L12.348 15.868C12.396 15.796 12.46 15.74 12.54 15.7C12.62 15.668 12.684 15.644 12.732 15.628C13.052 15.54 13.504 15.444 14.088 15.34C14.344 15.212 14.568 15.036 14.76 14.812C14.952 14.588 15.08 14.364 15.144 14.14C15.192 13.98 15.196 13.872 15.156 13.816C15.14 13.784 15.056 13.776 14.904 13.792C14.064 13.864 12.624 14.748 10.584 16.444C9.848 17.06 8.188 18.56 5.604 20.944C5.556 20.992 5.424 21.12 5.208 21.328C4.984 21.536 4.812 21.688 4.692 21.784C3.756 22.656 2.984 23.236 2.376 23.524C1.92 23.836 1.692 23.944 1.692 23.848C1.692 23.808 1.732 23.732 1.812 23.62C1.756 23.564 1.792 23.436 1.92 23.236C2.048 23.044 2.308 22.76 2.7 22.384C3.092 22.016 3.588 21.6 4.188 21.136C5.036 20.296 7.712 17.688 12.216 13.312ZM22.5844 13.576L22.6084 13.6C23.0724 13.328 23.4444 13.104 23.7244 12.928L24.2524 12.556L25.1524 11.668C26.9924 9.82 28.3204 8.596 29.1364 7.996C29.6964 7.596 30.0404 7.596 30.1684 7.996L30.1804 8.056C30.2284 8.24 30.0964 8.508 29.7844 8.86C29.4564 9.252 28.9404 9.768 28.2364 10.408C27.5404 11.048 26.7284 11.736 25.8004 12.472C25.4324 12.752 25.1004 12.992 24.8044 13.192L24.4444 13.54C24.1564 13.844 23.8564 14.148 23.5444 14.452C23.2404 14.748 23.0164 14.964 22.8724 15.1C22.7364 15.236 22.6724 15.304 22.6804 15.304H22.6924C23.0444 15.432 24.8404 14.74 28.0804 13.228C28.1844 13.18 28.2884 13.176 28.3924 13.216C28.4964 13.256 28.5724 13.332 28.6204 13.444C28.6684 13.54 28.6724 13.644 28.6324 13.756C28.5924 13.86 28.5204 13.936 28.4164 13.984C25.0404 15.552 23.0404 16.252 22.4164 16.084L22.3564 16.06C21.8764 15.86 21.8804 15.4 22.3684 14.68L22.1524 14.812C20.6004 15.636 19.5124 16.032 18.8884 16C18.5204 15.984 18.2804 15.88 18.1684 15.688C18.0564 15.496 18.0644 15.256 18.1924 14.968L18.2044 14.944C18.3724 14.584 18.6964 14.228 19.1764 13.876C19.5044 13.644 19.8524 13.464 20.2204 13.336C20.5804 13.208 20.9724 13.156 21.3964 13.18C21.8284 13.204 22.2244 13.336 22.5844 13.576ZM21.7564 14.068C21.5324 13.988 21.2884 13.968 21.0244 14.008C20.7684 14.04 20.5284 14.104 20.3044 14.2C20.0804 14.296 19.8604 14.416 19.6444 14.56C19.3564 14.768 19.1484 14.972 19.0204 15.172C19.5484 15.14 20.4604 14.772 21.7564 14.068Z" fill="#ED017A"/>
<path d="M12.216 13.312L12.9128 14.0292L12.918 14.0242L12.9231 14.0191L12.216 13.312ZM12.504 13.204L12.4328 14.2015L12.4683 14.204H12.504V13.204ZM12.792 13.324L12.0849 14.0311L12.0849 14.0311L12.792 13.324ZM12.888 13.732L11.9497 13.3863L10.9817 16.0135L13.395 14.5939L12.888 13.732ZM14.832 12.964L14.8985 13.9618L14.9068 13.9612L14.915 13.9605L14.832 12.964ZM15.864 13.384L15.0255 13.929L15.0319 13.9387L15.864 13.384ZM15.936 14.38L14.9836 14.0752L14.9685 14.1222L14.9582 14.1705L15.936 14.38ZM15.804 14.728L14.9216 14.2574L14.9155 14.269L14.9096 14.2808L15.804 14.728ZM15.6 15.064L14.7863 14.4828L13.2991 16.5648L15.804 16.043L15.6 15.064ZM17.22 14.644L17.5226 15.5971L17.5294 15.595L17.5362 15.5927L17.22 14.644ZM18.468 14.176L18.0741 13.2568L18.066 13.2604L18.468 14.176ZM19.968 13.48L19.5542 12.5696L19.544 12.5743L19.5339 12.5792L19.968 13.48ZM20.496 13.24L20.9098 14.1504L20.9405 14.1364L20.9701 14.1205L20.496 13.24ZM20.82 13.216L20.4837 14.1577L20.82 13.216ZM21.06 13.42L21.968 13.0009L21.9614 12.9868L21.9544 12.9728L21.06 13.42ZM20.856 13.984L20.4369 13.076L20.4253 13.0815L20.856 13.984ZM20.328 14.236L20.7524 15.1415L20.7587 15.1385L20.328 14.236ZM18.6 15.016L18.2154 14.0929L18.2084 14.0958L18.6 15.016ZM17.124 15.532L17.4137 16.4891L17.124 15.532ZM15.06 16L14.8956 15.0136L14.8861 15.0152L14.8767 15.0169L15.06 16ZM14.352 16.132L14.1687 15.1489L14.072 15.167L13.9806 15.2035L14.352 16.132ZM14.22 16.18L13.9038 15.2313L13.8759 15.2406L13.8486 15.2515L14.22 16.18ZM13.956 16.264L14.262 17.2161L14.2722 17.2127L13.956 16.264ZM13.62 16.372L13.8428 17.3469L13.8849 17.3372L13.926 17.324L13.62 16.372ZM12.816 16.504V17.504H12.8628L12.9093 17.4996L12.816 16.504ZM12.804 16.504V15.504H12.7728L12.7416 15.5059L12.804 16.504ZM12.3 16.372L13.0926 15.7623H13.0926L12.3 16.372ZM12.336 15.892L11.4416 15.4448L11.4382 15.4515L11.435 15.4582L12.336 15.892ZM12.348 15.868L11.5159 15.3133L11.4814 15.3651L11.4536 15.4208L12.348 15.868ZM12.54 15.7L12.1686 14.7715L12.13 14.787L12.0928 14.8056L12.54 15.7ZM12.732 15.628L12.4668 14.6638L12.4411 14.6709L12.4158 14.6793L12.732 15.628ZM14.088 15.34L14.2633 16.3245L14.4058 16.2991L14.5352 16.2344L14.088 15.34ZM14.76 14.812L14.0007 14.1612L14.0007 14.1612L14.76 14.812ZM15.144 14.14L14.1861 13.8526L14.1825 13.8653L15.144 14.14ZM15.156 13.816L14.2616 14.2632L14.2967 14.3334L14.3423 14.3972L15.156 13.816ZM14.904 13.792L14.9894 14.7883L14.9991 14.7875L15.0087 14.7865L14.904 13.792ZM10.584 16.444L9.9447 15.675L9.94218 15.6771L10.584 16.444ZM5.604 20.944L4.92591 20.209L4.91112 20.2227L4.89689 20.2369L5.604 20.944ZM5.208 21.328L5.88845 22.0608L5.8951 22.0546L5.90164 22.0483L5.208 21.328ZM4.692 21.784L4.0673 21.0031L4.0379 21.0267L4.01035 21.0523L4.692 21.784ZM2.376 23.524L1.94791 22.6203L1.87652 22.6541L1.81132 22.6987L2.376 23.524ZM1.812 23.62L2.62573 24.2012L3.11812 23.5119L2.51911 22.9129L1.812 23.62ZM1.92 23.236L1.08795 22.6813L1.08277 22.6891L1.07773 22.6969L1.92 23.236ZM2.7 22.384L2.01552 21.6549L2.00777 21.6623L2.7 22.384ZM4.188 21.136L4.79975 21.9271L4.84822 21.8896L4.89175 21.8465L4.188 21.136ZM12.9231 14.0191C12.8727 14.0695 12.7981 14.1242 12.6991 14.1613C12.6 14.1985 12.5065 14.2067 12.4328 14.2015L12.5752 12.2065C12.1714 12.1777 11.7922 12.3216 11.5089 12.6049L12.9231 14.0191ZM12.504 14.204C12.4382 14.204 12.3584 14.1917 12.2754 14.1571C12.1926 14.1226 12.1291 14.0753 12.0849 14.0311L13.4991 12.6169C13.2337 12.3515 12.8842 12.204 12.504 12.204V14.204ZM12.0849 14.0311C12.0417 13.9879 11.9675 13.8934 11.9326 13.745C11.8969 13.5932 11.9209 13.4642 11.9497 13.3863L13.8263 14.0777C13.9111 13.8478 13.9471 13.5748 13.8794 13.287C13.8125 13.0026 13.6623 12.7801 13.4991 12.6169L12.0849 14.0311ZM13.395 14.5939C14.1825 14.1307 14.6621 13.9775 14.8985 13.9618L14.7655 11.9662C14.0419 12.0145 13.2255 12.3733 12.381 12.8701L13.395 14.5939ZM14.915 13.9605C15.0433 13.9499 15.0834 13.9695 15.073 13.9652C15.0669 13.9627 15.0551 13.9566 15.0423 13.946C15.0298 13.9355 15.0247 13.9277 15.0256 13.929L16.7024 12.839C16.2387 12.1256 15.4827 11.9063 14.749 11.9675L14.915 13.9605ZM15.0319 13.9387C15.0275 13.932 15.0228 13.9228 15.0195 13.9129C15.0162 13.9032 15.0163 13.8989 15.0166 13.9031C15.0173 13.9132 15.0185 13.9662 14.9836 14.0752L16.8884 14.6848C17.0769 14.0958 17.092 13.4232 16.6961 12.8293L15.0319 13.9387ZM14.9582 14.1705C14.957 14.1763 14.9498 14.2047 14.9216 14.2574L16.6864 15.1986C16.7862 15.0113 16.867 14.8077 16.9138 14.5895L14.9582 14.1705ZM14.9096 14.2808C14.8791 14.3417 14.8389 14.4091 14.7863 14.4828L16.4137 15.6452C16.5211 15.4949 16.6169 15.3383 16.6984 15.1752L14.9096 14.2808ZM15.804 16.043C16.4096 15.9168 16.9828 15.7685 17.5226 15.5971L16.9174 13.6909C16.4492 13.8395 15.9424 13.9712 15.396 14.085L15.804 16.043ZM17.5362 15.5927C18.0569 15.4191 18.5041 15.2523 18.87 15.0916L18.066 13.2604C17.7759 13.3877 17.3911 13.5329 16.9038 13.6953L17.5362 15.5927ZM18.8619 15.0951C19.2191 14.9421 19.7353 14.7022 20.4021 14.3808L19.5339 12.5792C18.8727 12.8978 18.389 13.1219 18.0741 13.2569L18.8619 15.0951ZM20.3818 14.3904L20.9098 14.1504L20.0822 12.3296L19.5542 12.5696L20.3818 14.3904ZM20.9701 14.1205C20.9097 14.153 20.8273 14.182 20.7289 14.1893C20.6306 14.1965 20.546 14.18 20.4837 14.1577L21.1563 12.2743C20.7798 12.1398 20.3771 12.1682 20.0219 12.3595L20.9701 14.1205ZM20.4837 14.1577C20.4408 14.1425 20.3798 14.1129 20.3164 14.0589C20.2514 14.0038 20.2004 13.9369 20.1656 13.8672L21.9544 12.9728C21.7782 12.6204 21.4826 12.3908 21.1563 12.2743L20.4837 14.1577ZM20.152 13.8391C20.124 13.7783 20.1029 13.7019 20.0997 13.616C20.0965 13.5309 20.1118 13.4593 20.1303 13.4077L22.0137 14.0803C22.138 13.7323 22.1302 13.3526 21.968 13.0009L20.152 13.8391ZM20.1303 13.4077C20.1495 13.3538 20.1848 13.2856 20.2447 13.219C20.3052 13.1518 20.3738 13.1052 20.4369 13.076L21.2751 14.892C21.6333 14.7266 21.8873 14.4345 22.0137 14.0803L20.1303 13.4077ZM20.4253 13.0815L19.8973 13.3335L20.7587 15.1385L21.2867 14.8865L20.4253 13.0815ZM19.9036 13.3305C19.1382 13.6893 18.5784 13.9417 18.2154 14.0929L18.9846 15.9391C19.3896 15.7703 19.9818 15.5027 20.7524 15.1415L19.9036 13.3305ZM18.2084 14.0958C17.8786 14.2362 17.4244 14.3963 16.8343 14.5749L17.4137 16.4891C18.0396 16.2997 18.5694 16.1158 18.9916 15.9362L18.2084 14.0958ZM16.8343 14.5749C16.2754 14.744 15.6303 14.8912 14.8956 15.0136L15.2244 16.9864C16.0257 16.8528 16.7566 16.688 17.4137 16.4891L16.8343 14.5749ZM14.8767 15.0169L14.1687 15.1489L14.5353 17.1151L15.2433 16.9831L14.8767 15.0169ZM13.9806 15.2035C13.9616 15.2111 13.9363 15.2205 13.9038 15.2313L14.5362 17.1287C14.5997 17.1075 14.6624 17.0849 14.7234 17.0605L13.9806 15.2035ZM13.8486 15.2515C13.8496 15.2511 13.8463 15.2525 13.8378 15.2553C13.8294 15.2581 13.8174 15.2619 13.8013 15.2665L14.3507 17.1895C14.4289 17.1672 14.511 17.1406 14.5914 17.1085L13.8486 15.2515ZM13.8013 15.2665C13.7445 15.2827 13.6862 15.2998 13.6398 15.3153L14.2722 17.2127C14.2705 17.2133 14.2757 17.2115 14.2913 17.2068C14.3059 17.2025 14.3254 17.1967 14.3507 17.1895L13.8013 15.2665ZM13.65 15.312L13.314 15.42L13.926 17.324L14.262 17.216L13.65 15.312ZM13.3972 15.3971C13.155 15.4525 12.9304 15.4889 12.7227 15.5084L12.9093 17.4996C13.2136 17.4711 13.525 17.4195 13.8428 17.3469L13.3972 15.3971ZM12.816 15.504H12.804V17.504H12.816V15.504ZM12.7416 15.5059C12.6741 15.5102 12.6839 15.5011 12.7394 15.5156C12.8004 15.5316 12.9595 15.5892 13.0926 15.7623L11.5074 16.9817C11.921 17.5195 12.5748 17.5203 12.8664 17.5021L12.7416 15.5059ZM13.0926 15.7623C13.2344 15.9467 13.2543 16.1405 13.2462 16.2488C13.2394 16.3391 13.215 16.3715 13.237 16.3258L11.435 15.4582C11.3051 15.7279 11.0522 16.39 11.5074 16.9817L13.0926 15.7623ZM13.2304 16.3392L13.2424 16.3152L11.4536 15.4208L11.4416 15.4448L13.2304 16.3392ZM13.1801 16.4227C13.1282 16.5005 13.0574 16.5593 12.9872 16.5944L12.0928 14.8056C11.8626 14.9207 11.6638 15.0915 11.5159 15.3133L13.1801 16.4227ZM12.9114 16.6285C12.9839 16.5995 13.0272 16.5837 13.0482 16.5767L12.4158 14.6793C12.3408 14.7043 12.2561 14.7365 12.1686 14.7715L12.9114 16.6285ZM12.9972 16.5922C13.2731 16.5163 13.69 16.4266 14.2633 16.3245L13.9127 14.3555C13.318 14.4614 12.8309 14.5637 12.4668 14.6638L12.9972 16.5922ZM14.5352 16.2344C14.9141 16.045 15.2432 15.7848 15.5193 15.4628L14.0007 14.1612C13.8928 14.2872 13.7739 14.379 13.6408 14.4456L14.5352 16.2344ZM15.5193 15.4628C15.7808 15.1576 15.9929 14.8089 16.1055 14.4147L14.1825 13.8653C14.1671 13.9191 14.1232 14.0184 14.0007 14.1612L15.5193 15.4628ZM16.1018 14.4273C16.1385 14.3051 16.176 14.1477 16.1823 13.976C16.1881 13.8191 16.1732 13.5196 15.9697 13.2348L14.3423 14.3972C14.1788 14.1684 14.1819 13.9509 14.1837 13.902C14.186 13.8383 14.1975 13.8149 14.1862 13.8527L16.1018 14.4273ZM16.0504 13.3688C15.893 13.054 15.6311 12.9194 15.5026 12.868C15.3663 12.8135 15.2445 12.797 15.1758 12.7905C15.0344 12.777 14.8975 12.7872 14.7993 12.7975L15.0087 14.7865C15.0625 14.7808 15.0436 14.787 14.9862 14.7815C14.9595 14.779 14.8712 14.7695 14.7599 14.725C14.6564 14.6836 14.411 14.562 14.2616 14.2632L16.0504 13.3688ZM14.8186 12.7957C14.1537 12.8526 13.416 13.1993 12.6708 13.6568C11.8941 14.1336 10.9832 14.8116 9.94471 15.675L11.2233 17.213C12.2248 16.3804 13.0539 15.7684 13.7172 15.3612C14.412 14.9347 14.8143 14.8034 14.9894 14.7883L14.8186 12.7957ZM9.94218 15.6771C9.18376 16.3119 7.50436 17.8301 4.92591 20.209L6.28209 21.679C8.87164 19.2899 10.5122 17.8081 11.2258 17.2109L9.94218 15.6771ZM4.89689 20.2369C4.85718 20.2766 4.73335 20.3968 4.51436 20.6077L5.90164 22.0483C6.11465 21.8432 6.25482 21.7074 6.31111 21.6511L4.89689 20.2369ZM4.52755 20.5952C4.30765 20.7994 4.15754 20.9309 4.0673 21.0031L5.31669 22.5649C5.46646 22.4451 5.66035 22.2726 5.88845 22.0608L4.52755 20.5952ZM4.01035 21.0523C3.09465 21.9054 2.41349 22.3997 1.94791 22.6203L2.80409 24.4277C3.55451 24.0723 4.41735 23.4066 5.37365 22.5157L4.01035 21.0523ZM1.81132 22.6987C1.58813 22.8514 1.47242 22.9175 1.43491 22.9353C1.38742 22.9578 1.49877 22.8928 1.68219 22.8831C1.77849 22.8781 2.05575 22.8791 2.32233 23.0896C2.62797 23.3309 2.692 23.6602 2.692 23.848H0.691999C0.691999 24.0599 0.76315 24.4068 1.08305 24.6593C1.36388 24.881 1.66251 24.8869 1.78731 24.8804C2.02773 24.8677 2.22458 24.7742 2.29109 24.7427C2.48158 24.6525 2.70787 24.5086 2.94068 24.3493L1.81132 22.6987ZM2.692 23.848C2.692 23.9916 2.65885 24.0967 2.64487 24.1372C2.62822 24.1855 2.61201 24.2171 2.60692 24.2267C2.59717 24.2453 2.59841 24.2395 2.62573 24.2012L0.998266 23.0388C0.945593 23.1125 0.886831 23.2007 0.837081 23.2953C0.809311 23.348 0.691999 23.5649 0.691999 23.848H2.692ZM2.51911 22.9129C2.69253 23.0863 2.76361 23.2928 2.78139 23.4564C2.79735 23.6032 2.77138 23.7111 2.75965 23.7527C2.73783 23.8303 2.71667 23.8463 2.76227 23.7751L1.07773 22.6969C0.995333 22.8257 0.892168 23.0057 0.834349 23.2113C0.78758 23.3775 0.680953 23.9032 1.10489 24.3271L2.51911 22.9129ZM2.75205 23.7907C2.81342 23.6986 3.00138 23.4806 3.39223 23.1057L2.00777 21.6623C1.61462 22.0394 1.28258 22.3894 1.08795 22.6813L2.75205 23.7907ZM3.38443 23.1131C3.74595 22.7737 4.21562 22.3788 4.79975 21.9271L3.57625 20.3449C2.96038 20.8212 2.43804 21.2583 2.01556 21.6549L3.38443 23.1131ZM4.89175 21.8465C5.7354 21.0108 8.40694 18.4071 12.9128 14.0292L11.5192 12.5948C7.01706 16.9689 4.3366 19.5812 3.48425 20.4256L4.89175 21.8465ZM22.5844 13.576L23.2915 12.8689L23.2215 12.7989L23.1391 12.7439L22.5844 13.576ZM22.6084 13.6L21.9013 14.3071L22.4476 14.8534L23.1141 14.4627L22.6084 13.6ZM23.7244 12.928L24.2565 13.7746L24.2788 13.7606L24.3003 13.7455L23.7244 12.928ZM24.2524 12.556L24.8283 13.3735L24.8959 13.3259L24.9547 13.2678L24.2524 12.556ZM25.1524 11.668L25.8547 12.3799L25.861 12.3736L25.1524 11.668ZM29.1364 7.996L28.5551 7.18219L28.544 7.19035L29.1364 7.996ZM30.1684 7.996L31.149 7.79989L31.1379 7.74476L31.1208 7.69122L30.1684 7.996ZM30.1804 8.056L29.1998 8.25211L29.2055 8.28045L29.2128 8.30842L30.1804 8.056ZM29.7844 8.86L29.036 8.19669L29.0266 8.20735L29.0174 8.21828L29.7844 8.86ZM28.2364 10.408L27.5637 9.66805L27.5595 9.6719L28.2364 10.408ZM25.8004 12.472L26.4059 13.2678L26.4139 13.2617L26.4218 13.2555L25.8004 12.472ZM24.8044 13.192L24.2445 12.3634L24.1721 12.4123L24.1094 12.473L24.8044 13.192ZM24.4444 13.54L23.7494 12.821L23.7335 12.8363L23.7184 12.8523L24.4444 13.54ZM23.5444 14.452L24.242 15.1685L24.2422 15.1682L23.5444 14.452ZM22.8724 15.1L22.1858 14.373L22.1754 14.3828L22.1653 14.3929L22.8724 15.1ZM22.6924 15.304L23.0341 14.3642L22.8686 14.304H22.6924V15.304ZM28.0804 13.228L27.6613 12.32L27.6575 12.3218L28.0804 13.228ZM28.3924 13.216L28.0334 14.1493H28.0334L28.3924 13.216ZM28.6204 13.444L27.7012 13.8379L27.7128 13.8649L27.7259 13.8912L28.6204 13.444ZM28.6324 13.756L29.5657 14.115L29.5701 14.1037L29.5741 14.0923L28.6324 13.756ZM28.4164 13.984L27.9973 13.076L27.9951 13.077L28.4164 13.984ZM22.4164 16.084L22.045 17.0125L22.0996 17.0343L22.1564 17.0496L22.4164 16.084ZM22.3564 16.06L21.9718 16.9831L21.9784 16.9858L21.985 16.9885L22.3564 16.06ZM22.3684 14.68L23.1962 15.2411L21.8469 13.8267L22.3684 14.68ZM22.1524 14.812L22.6213 15.6952L22.648 15.6811L22.6738 15.6653L22.1524 14.812ZM18.8884 16L18.9396 15.0013L18.9318 15.0009L18.8884 16ZM18.1684 15.688L19.0322 15.1841H19.0322L18.1684 15.688ZM18.1924 14.968L17.2979 14.5208L17.2878 14.5411L17.2786 14.5619L18.1924 14.968ZM18.2044 14.944L19.0988 15.3912L19.1048 15.3791L19.1106 15.3669L18.2044 14.944ZM19.1764 13.876L18.5989 13.0596L18.5919 13.0645L18.585 13.0696L19.1764 13.876ZM20.2204 13.336L20.5489 14.2805L20.5554 14.2782L20.2204 13.336ZM21.3964 13.18L21.3399 14.1784L21.3409 14.1785L21.3964 13.18ZM21.7564 14.068L22.2337 14.9467L24.1997 13.8788L22.0927 13.1263L21.7564 14.068ZM21.0244 14.008L21.1484 15.0003L21.1613 14.9987L21.1742 14.9967L21.0244 14.008ZM19.6444 14.56L19.0897 13.728L19.0741 13.7383L19.0589 13.7493L19.6444 14.56ZM19.0204 15.172L18.1781 14.6329L17.1182 16.2891L19.0809 16.1702L19.0204 15.172ZM21.8773 14.2831L21.9013 14.3071L23.3155 12.8929L23.2915 12.8689L21.8773 14.2831ZM23.1141 14.4627C23.5822 14.1883 23.9641 13.9584 24.2565 13.7746L23.1922 12.0814C22.9246 12.2496 22.5625 12.4677 22.1027 12.7373L23.1141 14.4627ZM24.3003 13.7455L24.8283 13.3735L23.6764 11.7385L23.1484 12.1105L24.3003 13.7455ZM24.9547 13.2678L25.8547 12.3798L24.45 10.9562L23.55 11.8442L24.9547 13.2678ZM25.861 12.3736C27.7039 10.5227 28.9825 9.3504 29.7288 8.80165L28.544 7.19035C27.6583 7.8416 26.2809 9.1173 24.4437 10.9624L25.861 12.3736ZM29.7176 8.80973C29.8221 8.7351 29.8885 8.69964 29.9205 8.68548C29.9575 8.66912 29.9147 8.696 29.8144 8.696C29.6919 8.696 29.5275 8.65436 29.3854 8.5339C29.259 8.42686 29.2213 8.3174 29.216 8.30078L31.1208 7.69122C31.0515 7.4746 30.9227 7.21514 30.6784 7.0081C30.4182 6.78764 30.1088 6.696 29.8144 6.696C29.3099 6.696 28.8636 6.96197 28.5551 7.18227L29.7176 8.80973ZM29.1878 8.19211L29.1998 8.25211L31.161 7.85989L31.149 7.79989L29.1878 8.19211ZM29.2128 8.30842C29.1807 8.18573 29.1886 8.08531 29.1995 8.02704C29.2098 7.97142 29.2243 7.9451 29.2203 7.95315C29.217 7.95991 29.2035 7.98494 29.1716 8.02952C29.1402 8.07331 29.0961 8.12887 29.036 8.19669L30.5327 9.52331C30.7182 9.31406 30.8931 9.08317 31.0145 8.83685C31.129 8.60425 31.2589 8.22884 31.148 7.80358L29.2128 8.30842ZM29.0174 8.21828C28.7336 8.55756 28.2575 9.03738 27.5637 9.66806L28.909 11.1479C29.6233 10.4986 30.1792 9.94644 30.5513 9.50172L29.0174 8.21828ZM27.5595 9.6719C26.8852 10.2919 26.0924 10.964 25.179 11.6885L26.4218 13.2555C27.3643 12.508 28.1955 11.8041 28.9132 11.1441L27.5595 9.6719ZM25.1949 11.6762C24.8377 11.9479 24.5213 12.1764 24.2445 12.3634L25.3642 14.0206C25.6795 13.8076 26.0271 13.5561 26.4059 13.2678L25.1949 11.6762ZM24.1094 12.473L23.7494 12.821L25.1394 14.259L25.4994 13.911L24.1094 12.473ZM23.7184 12.8523C23.44 13.1462 23.1493 13.4407 22.8465 13.7358L24.2422 15.1682C24.5634 14.8553 24.8728 14.5418 25.1703 14.2277L23.7184 12.8523ZM22.8468 13.7355C22.5433 14.031 22.3239 14.2425 22.1858 14.373L23.559 15.827C23.7089 15.6855 23.9375 15.465 24.242 15.1685L22.8468 13.7355ZM22.1653 14.3929C22.0959 14.4622 22.0371 14.5221 21.9942 14.5676C21.9759 14.5871 21.9452 14.62 21.9159 14.6555C21.9095 14.6634 21.8631 14.7185 21.8188 14.7938C21.8163 14.7981 21.7134 14.9582 21.6866 15.1864C21.672 15.3101 21.6589 15.6372 21.9079 15.9395C22.1719 16.26 22.5211 16.304 22.6804 16.304V14.304C22.8391 14.304 23.188 14.3479 23.4518 14.6681C23.7005 14.9702 23.6874 15.2968 23.6729 15.42C23.6461 15.6472 23.544 15.8057 23.5427 15.8078C23.5173 15.8509 23.4944 15.8821 23.4854 15.8943C23.474 15.9096 23.4648 15.9209 23.4598 15.927C23.4445 15.9455 23.4369 15.9529 23.4506 15.9384C23.4717 15.9159 23.5128 15.8738 23.5795 15.8071L22.1653 14.3929ZM22.6804 16.304H22.6924V14.304H22.6804V16.304ZM22.3506 16.2438C22.6171 16.3407 22.8728 16.3215 22.9994 16.3078C23.1571 16.2908 23.3217 16.2553 23.4811 16.2135C23.802 16.1292 24.2004 15.9923 24.6629 15.8141C25.5933 15.4557 26.8768 14.8932 28.5033 14.1342L27.6575 12.3218C26.0439 13.0748 24.8095 13.6143 23.9438 13.9479C23.5083 14.1157 23.1892 14.2223 22.9732 14.279C22.864 14.3077 22.8053 14.3171 22.7847 14.3193C22.7331 14.3249 22.8557 14.2993 23.0341 14.3642L22.3506 16.2438ZM28.4994 14.136C28.4439 14.1616 28.3671 14.1847 28.2748 14.1883C28.1819 14.1918 28.099 14.1746 28.0334 14.1493L28.7514 12.2827C28.3874 12.1427 28.0029 12.1624 27.6613 12.32L28.4994 14.136ZM28.0334 14.1493C27.9597 14.121 27.8849 14.0747 27.8203 14.0101C27.7571 13.9469 27.7207 13.8833 27.7012 13.8379L29.5395 13.0501C29.3962 12.7157 29.1321 12.4291 28.7514 12.2827L28.0334 14.1493ZM27.7259 13.8912C27.6884 13.816 27.6638 13.7271 27.6601 13.6324C27.6566 13.5401 27.6738 13.4668 27.6906 13.4197L29.5741 14.0923C29.6949 13.7542 29.6985 13.3642 29.5148 12.9968L27.7259 13.8912ZM27.699 13.397C27.7229 13.3349 27.7628 13.2662 27.8224 13.2033C27.8817 13.1407 27.9449 13.1003 27.9973 13.076L28.8354 14.892C29.1684 14.7383 29.4294 14.4694 29.5657 14.115L27.699 13.397ZM27.9951 13.077C26.3183 13.8559 25.0085 14.4071 24.054 14.7411C23.5754 14.9087 23.2091 15.0134 22.9437 15.0672C22.6384 15.1291 22.5931 15.096 22.6763 15.1184L22.1564 17.0496C22.5516 17.156 22.9903 17.0984 23.3411 17.0273C23.7317 16.9481 24.1934 16.8113 24.7147 16.6289C25.7603 16.2629 27.1385 15.6801 28.8376 14.891L27.9951 13.077ZM22.7878 15.1555L22.7278 15.1315L21.985 16.9885L22.045 17.0125L22.7878 15.1555ZM22.741 15.1369C22.7449 15.1385 22.8233 15.1724 22.8982 15.2763C22.9792 15.3887 22.9999 15.5048 22.9993 15.5737C22.9989 15.6276 22.9863 15.6276 23.0161 15.5561C23.0445 15.4879 23.0993 15.384 23.1962 15.2411L21.5406 14.1189C21.2696 14.5187 21.0041 15.0199 20.9994 15.5563C20.9968 15.8552 21.076 16.1688 21.2761 16.4462C21.47 16.7151 21.7279 16.8815 21.9718 16.9831L22.741 15.1369ZM21.8469 13.8267L21.6309 13.9587L22.6738 15.6653L22.8898 15.5333L21.8469 13.8267ZM21.6834 13.9288C20.9298 14.3289 20.3147 14.611 19.8304 14.7873C19.3232 14.9719 19.0479 15.0069 18.9396 15.0013L18.8372 16.9987C19.3528 17.0251 19.9336 16.8781 20.5144 16.6667C21.1181 16.447 21.823 16.1191 22.6213 15.6952L21.6834 13.9288ZM18.9318 15.0009C18.8238 14.9963 18.8022 14.9804 18.83 14.9924C18.8469 14.9998 18.8804 15.0169 18.92 15.0501C18.9608 15.0844 19.0003 15.1296 19.0322 15.1841L17.3046 16.1919C17.6778 16.8316 18.3651 16.9782 18.8449 16.9991L18.9318 15.0009ZM19.0322 15.1841C19.0532 15.2203 19.0693 15.2602 19.0791 15.3009C19.0888 15.3412 19.0906 15.3746 19.0898 15.3973C19.0884 15.4393 19.079 15.4354 19.1062 15.3741L17.2786 14.5619C17.0782 15.0126 16.9698 15.618 17.3046 16.1919L19.0322 15.1841ZM19.0868 15.4152L19.0988 15.3912L17.3099 14.4968L17.2979 14.5208L19.0868 15.4152ZM19.1106 15.3669C19.1808 15.2164 19.361 14.9807 19.7677 14.6824L18.585 13.0696C18.0318 13.4753 17.564 13.9516 17.2982 14.5211L19.1106 15.3669ZM19.7538 14.6924C20.0077 14.5129 20.2722 14.3767 20.5489 14.2805L19.8919 12.3915C19.4325 12.5513 19.0011 12.7751 18.5989 13.0596L19.7538 14.6924ZM20.5554 14.2782C20.7766 14.1996 21.034 14.1611 21.3399 14.1784L21.4529 12.1816C20.9108 12.1509 20.3841 12.2164 19.8854 12.3938L20.5554 14.2782ZM21.3409 14.1785C21.5946 14.1926 21.8182 14.2671 22.0297 14.4081L23.1391 12.7439C22.6305 12.4049 22.0621 12.2154 21.4518 12.1815L21.3409 14.1785ZM22.0927 13.1263C21.6948 12.9841 21.2817 12.9576 20.8746 13.0193L21.1742 14.9967C21.2951 14.9784 21.37 14.9919 21.42 15.0097L22.0927 13.1263ZM20.9003 13.0157C20.5568 13.0587 20.2255 13.1459 19.9105 13.2809L20.6983 15.1191C20.8313 15.0621 20.9799 15.0213 21.1484 15.0003L20.9003 13.0157ZM19.9105 13.2809C19.6268 13.4024 19.3532 13.5523 19.0897 13.728L20.1991 15.392C20.3675 15.2797 20.5339 15.1896 20.6983 15.1191L19.9105 13.2809ZM19.0589 13.7493C18.7147 13.9979 18.3988 14.2882 18.1781 14.6329L19.8626 15.7111C19.898 15.6558 19.9981 15.5381 20.2299 15.3707L19.0589 13.7493ZM19.0809 16.1702C19.5086 16.1442 19.989 15.9953 20.4746 15.7994C20.9786 15.596 21.567 15.3089 22.2337 14.9467L21.279 13.1893C20.6497 13.5311 20.1342 13.78 19.7262 13.9446C19.2998 14.1167 19.0601 14.1678 18.9599 14.1738L19.0809 16.1702Z" fill="white"/>
</svg>
